# xmcd
#
# Track frame offsets: 
#        150
#        18961
#        37736
#        61303
#        74181
#        91566
#        106473
#        122975
#        138253
#        157646
#        169319
#        185577
#        201306
#        212564
#        228620
#        240415
#        255630
#        271495
#        284148
#        297907
#        313594
#
# Disc length: 4408 seconds
#
# Revision: 3
# Processed by: cddbd v1.5.2PL0 Copyright (c) Steve Scherf et al.
# Submitted via: ExactAudioCopyFreeDBPlugin 1.0
#
DISCID=37113615
DTITLE=Kenny Rogers and Dolly Parton - 1993 - The Very Best Of
DYEAR=1993
DGENRE=Country
TTITLE0=Kenny Rogers and Dolly Parton - Islands In The Stream
TTITLE1=Kenny Rogers - She Believes In Me
TTITLE2=Dolly Parton - You Are
TTITLE3=Dolly Parton - Here You Came Again
TTITLE4=Kenny Rogers - Lady
TTITLE5=Dolly Parton - Sandy's Song
TTITLE6=Kenny Rogers - Crazy
TTITLE7=Dolly Parton - Think About Love
TTITLE8=Kenny Rogers - Coward Of The County
TTITLE9=Dolly Parton - 9 To 5
TTITLE10=Kenny Rogers - You Decorated My Life
TTITLE11=Dolly Parton - Heartbreaker
TTITLE12=Dolly Parton - Baby I'm Burnin'
TTITLE13=Kenny Rogers - Lucille
TTITLE14=Dolly Parton - Jolene
TTITLE15=Dolly Parton - Applejack
TTITLE16=Kenny Rogers - Green Green Grass Of Home
TTITLE17=Kenny Rogers - Ruby Don't Take Your Love To Town
TTITLE18=Dolly Parton - I Will Always Love You
TTITLE19=Kenny Rogers - The Gambler
TTITLE20=Kenny Rogers and Dolly Parton - Real Love
EXTD=
EXTT0=
EXTT1=Kenny Rogers Only\n
EXTT2=
EXTT3=
EXTT4=
EXTT5=
EXTT6=
EXTT7=
EXTT8=
EXTT9=
EXTT10=
EXTT11=
EXTT12=
EXTT13=
EXTT14=
EXTT15=
EXTT16=
EXTT17=
EXTT18=
EXTT19=
EXTT20=
PLAYORDER=
